PathFileType	4	(X/Y/Z)	E:\Qualisys_Data\Carbon_Farble_Plate\Data\Amateur_Runner\S14\T1\S14T1V13_c3d.trc
DataRate	CameraRate	NumFrames	NumMarkers	Units	OrigDataRate	OrigDataStartFrame	OrigNumFrames
200.000000	200.000000	4	39	mm	200.000000	211	339
Frame#	Time	LSHO			RSHO			LICST			RICST			LASIS			LHEEL			RASIS			LTROC			RTROC			SACR			LTH1			LSK4			LTH2			LTH3			RHM5			LSK2			LTH4			RTH1			LTOE			RTH2			RTH3			RTH4			LLEP			RLEP			LSK1			LSK3			RSK1			LHM5			RSK2			LFT1			RSK3			RSK4			LLME			RLME			RTOE			RHEEL			RFT1			RFT2			LFT2			
		X1	Y1	Z1	X2	Y2	Z2	X3	Y3	Z3	X4	Y4	Z4	X5	Y5	Z5	X6	Y6	Z6	X7	Y7	Z7	X8	Y8	Z8	X9	Y9	Z9	X10	Y10	Z10	X11	Y11	Z11	X12	Y12	Z12	X13	Y13	Z13	X14	Y14	Z14	X15	Y15	Z15	X16	Y16	Z16	X17	Y17	Z17	X18	Y18	Z18	X19	Y19	Z19	X20	Y20	Z20	X21	Y21	Z21	X22	Y22	Z22	X23	Y23	Z23	X24	Y24	Z24	X25	Y25	Z25	X26	Y26	Z26	X27	Y27	Z27	X28	Y28	Z28	X29	Y29	Z29	X30	Y30	Z30	X31	Y31	Z31	X32	Y32	Z32	X33	Y33	Z33	X34	Y34	Z34	X35	Y35	Z35	X36	Y36	Z36	X37	Y37	Z37	X38	Y38	Z38	X39	Y39	Z39	

212	1.055	687.8603515625	1405.487426757812	-552.871826171875	758.91357421875	1397.635864257812	-254.56201171875	665.4686889648438	953.244873046875	-523.5250244140625	705.0986938476562	963.5416259765624	-246.7895965576172	711.99462890625	906.3466796875	-499.5464477539062	471.6498413085938	327.221435546875	-424.6424560546875	731.1016235351562	922.5479125976562	-266.1181030273438	582.7449951171875	825.6194458007812	-530.587646484375	585.9423828125	867.6300659179688	-214.4383239746094	547.0133056640625	959.7105102539062	-380.3439025878906	773.814453125	656.1091918945312	-554.0840454101562	645.2431030273438	427.1171264648438	-510.5936889648438	712.1744995117188	615.9859008789062	-527.0209350585938	835.2266235351562	577.706787109375	-539.2911987304688	509.0631408691406	55.69879150390625	-262.6052856445312	725.637939453125	482.163818359375	-530.0243530273438	769.2119750976562	537.0407104492188	-515.578369140625	712.4813232421875	623.7991333007812	-220.6159210205078	612.6129150390625	111.4695510864258	-457.9016418457031	635.7369384765625	631.3460693359375	-211.6483459472656	706.117431640625	527.5248413085938	-254.6930694580078	623.8056640625	531.0296630859375	-236.0785980224609	831.490234375	507.8701782226562	-534.9351806640625	635.8622436523438	456.8500061035156	-250.0713500976562	774.7739868164062	415.1438598632812	-526.7451171875	690.4642944335938	359.9282836914062	-507.2764892578125	603.1753540039062	334.9757080078125	-253.030517578125	559.5862426757812	159.4575805664062	-514.5654296875	529.33203125	378.2500610351562	-243.5775909423828	460.7080078125	303.1403198242188	-396.3929138183594	540.3408203125	250.5840911865234	-271.5165405273438	478.9674987792969	298.1166687011719	-261.0877685546875	527.393798828125	298.5242004394531	-485.2493896484375	407.1434326171875	138.7424774169922	-289.3805541992188	578.5357666015625	46.24607849121094	-328.1786193847656	339.3298034667969	128.4558715820312	-342.537841796875	344.1951293945312	95.8214111328125	-371.081787109375	334.1012878417969	107.6882019042969	-314.6538391113281	450.7623291015625	310.4378662109375	-450.4238586425781
213	1.06	700.61181640625	1409.931030273438	-553.0609130859375	776.1609497070312	1402.070922851562	-256.4358520507812	681.7340087890625	956.9558715820312	-523.10400390625	722.1880493164062	966.760498046875	-247.1126861572266	727.9486083984375	910.5891723632812	-499.6049499511719	497.5925598144531	316.5919494628906	-424.3211364746094	747.5355224609375	925.6609497070312	-266.7098999023438	599.0164184570312	830.5933837890625	-531.6327514648438	601.917724609375	871.3452758789062	-213.9720153808594	562.9891357421875	963.8589477539062	-379.5363159179688	792.254150390625	662.0320434570312	-554.1124877929688	667.0228881835938	424.1619873046875	-509.4753112792969	730.2236938476562	620.9295043945312	-527.6317749023438	853.5823974609375	583.9406127929688	-538.4312133789062	510.1178283691406	56.02942657470703	-262.0578002929688	744.8533935546875	482.784423828125	-529.4501342773438	787.459716796875	542.449462890625	-516.396484375	723.4390869140625	627.1367797851562	-221.7692260742188	647.421875	107.2237701416016	-458.2066040039062	647.0633544921875	634.7266235351562	-212.3811950683594	715.0042724609375	529.974609375	-255.8645324707031	632.9263916015625	535.7261352539062	-236.0819702148438	850.6725463867188	513.0836791992188	-533.9918212890625	642.959228515625	460.994384765625	-249.9237060546875	796.1978149414062	418.051025390625	-526.5037231445312	714.6395874023438	358.9609069824219	-507.1503295898438	608.3937377929688	339.5669250488281	-252.4175872802734	592.3373413085938	153.0767364501953	-514.5415649414062	535.2244873046875	382.7001953125	-243.7041625976562	487.9783020019531	291.0158081054688	-396.68310546875	547.543212890625	256.6543579101562	-270.7250061035156	484.1695556640625	303.0202026367188	-260.5385131835938	554.4310302734375	291.1120910644531	-485.2785949707031	410.8033752441406	143.5511016845703	-288.3461608886719	578.3705444335938	45.47964096069336	-328.2597045898438	343.3104248046875	134.5123901367188	-341.5732421875	347.1125793457031	102.4211654663086	-371.0493469238281	337.6862487792969	113.8026809692383	-313.9591064453125	477.2222595214844	299.0615234375	-450.5288391113281
214	1.065	713.2794799804688	1414.25732421875	-553.3296508789062	793.1456298828125	1406.416137695312	-258.3546447753906	697.7323608398438	961.60205078125	-523.515380859375	739.1917114257812	970.2233276367188	-247.9880065917969	745.8016967773438	915.6337890625	-499.4378356933594	523.351806640625	306.0646362304688	-424.5139770507812	764.0823364257812	928.6775512695312	-267.0429077148438	615.8026733398438	836.0370483398438	-533.1434326171875	618.3867797851562	875.4120483398438	-213.14404296875	579.495849609375	967.9327392578124	-379.6440734863281	810.1095581054688	667.248779296875	-553.6516723632812	688.3961181640625	420.887451171875	-508.9129638671875	748.1251220703125	625.9072265625	-529.033203125	871.9010009765625	589.6134643554688	-537.6930541992188	511.2455749511719	56.67578887939453	-261.2464599609375	763.5886840820312	483.3021545410156	-529.0901489257812	805.9872436523438	547.3466796875	-517.4517822265625	735.0023803710938	628.624267578125	-223.3229064941406	682.7052001953125	103.6116790771484	-458.3832702636719	658.8275146484375	638.6299438476562	-212.8241577148438	723.8159790039062	532.6681518554688	-256.7665100097656	642.1524658203125	539.7548217773438	-235.9751129150391	869.1973876953125	517.7306518554688	-533.1730346679688	650.4658203125	464.8152770996094	-249.5888671875	817.529052734375	420.9532775878906	-526.0525512695312	738.871337890625	357.6750183105469	-506.7979431152344	614.2052001953125	343.5964050292969	-251.8780059814453	625.4749755859375	146.5625610351562	-514.530029296875	541.4885864257812	387.7644653320312	-243.1225738525391	516.7886352539062	279.3955383300781	-396.2073669433594	552.880126953125	260.7153930664062	-269.9829711914062	489.6097106933594	308.1649780273438	-259.6954956054688	581.32275390625	282.9002075195312	-484.9129028320312	415.1613159179688	148.3827514648438	-287.344970703125	579.2260131835938	45.67902755737305	-327.9767761230469	347.7013244628906	141.4535369873047	-340.2153625488281	351.7305603027344	109.3495101928711	-369.5710754394531	341.8464660644531	120.3723297119141	-312.8233032226562	503.9736938476562	287.3412475585938	-449.9074096679688
215	1.07	725.8598022460938	1418.774291992188	-553.5645141601562	809.75390625	1411.141967773438	-260.1007385253906	713.8844604492188	966.2526245117188	-523.3851928710938	756.2026977539062	973.8007202148438	-248.5588531494141	761.6184692382812	920.773193359375	-499.5396423339844	549.6875610351562	294.774169921875	-423.6526794433594	780.7653198242188	932.0036010742188	-267.5082397460938	632.4387817382812	840.9989013671875	-534.036376953125	634.3814697265625	879.6396484375	-212.6955871582031	595.9039916992188	972.0411987304688	-378.9412231445312	827.8983154296875	672.7512817382812	-553.6854248046875	709.8779296875	417.2437438964844	-508.8207092285156	765.8195190429688	630.5555419921875	-530.096923828125	889.8124389648438	595.0709228515625	-537.0635375976562	512.66650390625	57.38891220092773	-260.6102600097656	781.9873046875	482.5728149414062	-528.2130737304688	823.4932250976562	552.4744262695312	-517.8532104492188	746.571044921875	631.53857421875	-223.8302307128906	718.104248046875	99.99981689453124	-458.666748046875	670.4529418945312	642.8634033203125	-212.7601928710938	733.1005859375	535.1903686523438	-256.9183044433594	651.741455078125	544.2616577148438	-235.7518768310547	887.4922485351562	522.403564453125	-532.1682739257812	657.6986083984375	470.1591796875	-248.7549133300781	838.2433471679688	423.1229858398438	-525.6550903320312	762.9390258789062	356.3676452636719	-506.8372497558594	620.254150390625	348.2056884765625	-251.7315521240234	658.8168334960938	140.5609588623047	-514.4877319335938	547.7498168945312	392.8806457519531	-242.4321899414062	543.614013671875	268.39599609375	-395.5	557.9632568359375	266.1043090820312	-269.170654296875	495.4006958007812	313.6248474121094	-258.8080444335938	608.6593627929688	274.5786743164062	-484.6585693359375	420.3729553222656	154.1509094238281	-286.2093200683594	580.3613891601562	45.74893188476562	-327.2640686035156	352.715087890625	148.4865264892578	-339.2670288085938	356.1454162597656	117.0000152587891	-368.8431701660156	346.6095886230469	127.0865936279297	-311.6135559082031	530.783203125	275.7033081054688	-449.4894104003906
